<mxfile host="app.diagrams.net" modified="2024-04-10T13:47:37.814Z" agent="Mozilla/5.0 (Macintosh; Intel Mac OS X 10_15_7) AppleWebKit/537.36 (KHTML, like Gecko) Chrome/123.0.0.0 Safari/537.36" version="24.2.3" etag="Huc9OWNWtbGRfnL9dwez" type="github">
  <diagram name="Page-1" id="LKXP8Yme39Oif56-5C3h">
    <mxGraphModel>
      <root>
        <mxCell id="0" />
        <mxCell id="1" parent="0" />
      </root>
    </mxGraphModel>
  </diagram>
</mxfile>
